<?xml version="1.0" encoding="UTF-8"?>
<svg width="24px" height="24px" viewBox="0 0 24 24" version="1.1" xmlns="http://www.w3.org/2000/svg" xmlns:xlink="http://www.w3.org/1999/xlink">
    <!-- Generator: Sketch 50.2 (55047) - http://www.bohemiancoding.com/sketch -->
    <title>biaoqing</title>
    <desc>Created with Sketch.</desc>
    <defs></defs>
    <g id="biaoqing" stroke="none" stroke-width="1" fill="none" fill-rule="evenodd">
        <g id="Group-3">
            <g id="1" transform="translate(12.000000, 12.000000) scale(-1, 1) translate(-12.000000, -12.000000) " fill="#3D72DE" fill-rule="nonzero">
                <path d="M22.104233,23.4798237 C21.602713,23.4798237 21.1381905,23.1556562 20.9825666,22.6512 L19.6565339,18.3553941 C19.5525889,18.018307 19.6054423,17.6518568 19.8009998,17.3582269 C20.795818,15.8642378 21.3402079,14.1329958 21.3748562,12.3506621 C21.4247733,9.84130071 20.4945537,7.46231102 18.75509,5.6529634 C17.0156263,3.84361577 14.675983,2.82002184 12.1666216,2.77010475 C9.32076036,2.71607685 6.66106047,3.91878504 4.82469889,6.07520324 C4.40422083,6.56908878 3.66309889,6.62898928 3.16921335,6.20792396 C2.67532781,5.7874459 2.61601456,5.0457367 3.03649262,4.55243842 C5.33209141,1.85750293 8.68064712,0.341785238 12.2124279,0.422239838 C15.3495701,0.483902123 18.2741242,1.76412861 20.4481602,4.02566633 C22.6221962,6.2877913 23.7855579,9.26050071 23.7233084,12.3970556 C23.6833747,14.4383709 23.1102091,16.425071 22.0601885,18.1792162 L23.2264866,21.9594079 C23.417346,22.5795543 23.0702754,23.2366981 22.4507163,23.4281448 C22.3356133,23.4627931 22.2187486,23.4798237 22.104233,23.4798237 Z" id="Shape"></path>
                <path d="M11.9828093,23.9102851 C11.9047037,23.9102851 11.8265982,23.9091106 11.7484926,23.9079361 C8.61252497,23.8462738 5.68738362,22.5660473 3.51334762,20.3039223 C1.33931163,18.0417974 0.175949848,15.069088 0.238199393,11.9325331 C0.268736906,10.3674855 0.601713246,8.85411689 1.22773225,7.43353529 C1.48965015,6.83981557 2.18261678,6.57085056 2.77574924,6.83218119 C3.36946896,7.09351183 3.63843397,7.78647846 3.37710334,8.38019818 C2.8773452,9.51537149 2.61131648,10.7257141 2.58665157,11.9789266 C2.53732174,14.4877007 3.46754135,16.8666904 5.20700506,18.676038 C6.9458815,20.4853856 9.28611203,21.5089796 11.7948861,21.5583094 C13.7210985,21.6158609 15.5545238,21.055615 17.1542196,19.9950237 C17.7097674,19.6256372 17.7121165,19.6285735 22.4706831,21.1883357 C23.087306,21.3903531 23.4226313,22.0539567 23.220614,22.6699923 C23.0185966,23.2860279 22.3579292,23.6254641 21.7389573,23.4199232 C20.318963,22.9542261 18.7409958,22.4509444 18.0069209,22.2336582 C16.1781937,23.3341832 14.1104518,23.9102851 11.9828093,23.9102851 Z" id="Shape"></path>
            </g>
            <g id="Group" transform="translate(6.000000, 9.000000)" fill="#FFB713" stroke="#FFB713" stroke-linecap="round" stroke-linejoin="round">
                <g id="Regular">
                    <g id="Group-2">
                        <path d="M9.15964286,5.46428571 C9.15964282,7.23948667 7.7205581,8.67857136 5.94535714,8.67857136 C4.17015619,8.67857136 2.73107147,7.23948667 2.73107143,5.46428571 L9.15964286,5.46428571 Z" id="Shape" stroke-width="1.5"></path>
                        <path d="M1.45428571,0.0446428571 C0.902000964,0.0446428571 0.454285714,0.492358107 0.454285714,1.04464286 C0.454285714,1.59692761 0.902000964,2.04464286 1.45428571,2.04464286 C2.00657046,2.04464286 2.45428571,1.59692761 2.45428571,1.04464286 C2.45428571,0.492358107 2.00657046,0.0446428571 1.45428571,0.0446428571" id="Shape"></path>
                        <path d="M10.0971429,0.0446428571 C9.54485811,0.0446428571 9.09714286,0.492358107 9.09714286,1.04464286 C9.09714286,1.59692761 9.54485811,2.04464286 10.0971429,2.04464286 C10.6494276,2.04464286 11.0971429,1.59692761 11.0971429,1.04464286 C11.0971429,0.492358107 10.6494276,0.0446428571 10.0971429,0.0446428571" id="Shape"></path>
                    </g>
                </g>
            </g>
        </g>
    </g>
</svg>