<?xml version="1.0" encoding="UTF-8"?>
<svg width="24px" height="24px" viewBox="0 0 24 24" version="1.1" xmlns="http://www.w3.org/2000/svg" xmlns:xlink="http://www.w3.org/1999/xlink">
    <!-- Generator: Sketch 50.2 (55047) - http://www.bohemiancoding.com/sketch -->
    <title>fenxiang</title>
    <desc>Created with Sketch.</desc>
    <defs></defs>
    <g id="fenxiang" stroke="none" stroke-width="1" fill="none" fill-rule="evenodd">
        <g id="1242141" fill-rule="nonzero">
            <path d="M21.0005248,24 L3.00007498,24 C1.34583363,24 5.12923037e-14,22.6542 5.12923037e-14,21 L5.12923037e-14,3 C5.12923037e-14,1.3458 1.34583363,-1.38777878e-14 3.00007498,-1.38777878e-14 L9.52523805,-1.38777878e-14 C10.1876546,-1.38777878e-14 10.725268,0.5376 10.725268,1.2 C10.725268,1.8624 10.1876546,2.4 9.52523805,2.4 L2.99947496,2.4 C2.6688667,2.4 2.39945997,2.6694 2.39945997,3 L2.39945997,21 C2.39945997,21.3312 2.6688667,21.6 2.99947496,21.6 L20.9999248,21.6 C21.3311331,21.6 21.5999398,21.3312 21.5999398,21 L21.5999398,15.645 C21.5999398,14.9826 22.1375533,14.445 22.7999698,14.445 C23.4623864,14.445 23.9999998,14.9826 23.9999998,15.645 L23.9999998,21 C24.0005998,22.6536 22.6547662,24 21.0005248,24 Z" id="Shape" fill="#3F72DE"></path>
            <path d="M22.7153285,10 C22.0061898,10 21.4306569,9.46545178 21.4306569,8.80681202 L21.4306569,2.38637596 L16.2846715,2.38637596 C15.5755328,2.38637596 15,1.85182775 15,1.19318798 C15,0.534548216 15.5755328,-1.38777878e-14 16.2846715,-1.38777878e-14 L22.7153285,-1.38777878e-14 C23.4244672,-1.38777878e-14 24,0.534548216 24,1.19318798 L24,8.80681202 C24,9.46604838 23.4244672,10 22.7153285,10 Z" id="Shape" fill="#FFB713"></path>
            <path d="M14.2725971,11 C13.9467715,11 13.6209459,10.8765441 13.3727585,10.627723 C12.8757472,10.1307174 12.8757472,9.3244355 13.3727585,8.82742986 L21.8275643,0.372754236 C22.3245756,-0.124251412 23.1302302,-0.124251412 23.6272415,0.372754236 C24.1242528,0.869759884 24.1242528,1.6754054 23.6272415,2.17241105 L15.1724357,10.6270867 C14.9236119,10.8759077 14.5977863,11 14.2725971,11 Z" id="Shape" fill="#FFB713"></path>
        </g>
    </g>
</svg>