<?xml version="1.0" encoding="UTF-8"?>
<svg width="24px" height="24px" viewBox="0 0 24 24" version="1.1" xmlns="http://www.w3.org/2000/svg" xmlns:xlink="http://www.w3.org/1999/xlink">
    <!-- Generator: Sketch 50.2 (55047) - http://www.bohemiancoding.com/sketch -->
    <title>sousuo</title>
    <desc>Created with Sketch.</desc>
    <defs></defs>
    <g id="sousuo" stroke="none" stroke-width="1" fill="none" fill-rule="evenodd">
        <g id="搜索" fill-rule="nonzero">
            <path d="M9.26458537,18.4571707 C4.21756098,18.4571707 0.111219512,14.3508293 0.111219512,9.30439024 C0.111219512,7.07473171 0.92195122,4.92643902 2.39473171,3.25580488 C4.13326829,1.28312195 6.63746341,0.151609756 9.26458537,0.151609756 C14.3116098,0.151609756 18.4173659,4.25795122 18.4173659,9.30497561 C18.4173659,14.3514146 14.3110244,18.4571707 9.26458537,18.4571707 Z M9.26458537,2.4924878 C7.30946341,2.4924878 5.44565854,3.33482927 4.15141463,4.8035122 C3.05619512,6.04682927 2.45268293,7.64487805 2.45268293,9.30439024 C2.45268293,13.0606829 5.50829268,16.1157073 9.26458537,16.1157073 C13.020878,16.1157073 16.0759024,13.0600976 16.0759024,9.30439024 C16.0759024,5.54868293 13.0202927,2.4924878 9.26458537,2.4924878 Z" id="Shape" fill="#3F72DE"></path>
            <path d="M22.3334634,23.5656585 C22.0337561,23.5656585 21.7346341,23.4515122 21.5057561,23.2226341 L15.72,17.4362927 C15.2628293,16.979122 15.2628293,16.2380488 15.72,15.780878 C16.1771707,15.3237073 16.9182439,15.3237073 17.3754146,15.780878 L23.1611707,21.5672195 C23.6183415,22.0243902 23.6183415,22.7654634 23.1611707,23.2226341 C22.932878,23.4509268 22.6331707,23.5656585 22.3334634,23.5656585 Z" id="Shape" fill="#FFB713"></path>
        </g>
    </g>
</svg>