<?xml version="1.0" encoding="UTF-8"?>
<svg width="24px" height="24px" viewBox="0 0 24 24" version="1.1" xmlns="http://www.w3.org/2000/svg" xmlns:xlink="http://www.w3.org/1999/xlink">
    <!-- Generator: Sketch 50.2 (55047) - http://www.bohemiancoding.com/sketch -->
    <title>suoxiao copy</title>
    <desc>Created with Sketch.</desc>
    <defs></defs>
    <g id="suoxiao-copy" stroke="none" stroke-width="1" fill="none" fill-rule="evenodd">
        <g id="Group-2" transform="translate(12.000000, 12.000000) scale(1, -1) translate(-12.000000, -12.000000) " fill-rule="nonzero">
            <g id="1124" fill="#3F72DE">
                <path d="M12.0003001,24 C8.79365715,24 5.77850033,22.7519688 3.51067981,20.4857121 C-1.1702266,15.8067952 -1.1702266,8.19380485 3.51067981,3.51488787 C5.77790006,1.2480312 8.79305688,0 12.0003001,0 C15.2069431,0 18.2214997,1.24863122 20.4893202,3.51488787 C25.1702266,8.19380485 25.1702266,15.8067952 20.4893202,20.4857121 C18.2214997,22.7519688 15.2063429,24 12.0003001,24 Z M12.0003001,2.40006 C9.43474564,2.40006 7.02286029,3.39848496 5.20884398,5.21173029 C1.46435896,8.95522388 1.46435896,15.0459761 5.20884398,18.7888697 C7.02286029,20.601515 9.43534591,21.60054 12.0003001,21.60054 C14.5652544,21.60054 16.9771397,20.6021151 18.791156,18.7888697 C22.535641,15.0459761 22.535641,8.95522388 18.791156,5.21173029 C16.9771397,3.39848496 14.5652544,2.40006 12.0003001,2.40006 Z" id="Shape"></path>
            </g>
            <g id="Group" transform="translate(6.000000, 9.000000)" fill="#FFB713">
                <path d="M5.85167533,7 C5.55766746,7 5.26423383,6.88802596 5.03970829,6.66350364 L0.336357633,1.96026357 C-0.112119211,1.51179316 -0.112119211,0.78482321 0.336357633,0.336352804 C0.784260243,-0.112117601 1.5123891,-0.112117601 1.96029171,0.336352804 L6.66364237,5.03959287 C7.11211921,5.48806328 7.11211921,6.21503323 6.66364237,6.66350364 C6.43911683,6.88802596 6.14510896,7 5.85167533,7 Z" id="Shape"></path>
                <path d="M6.14825874,7 C5.85426775,7 5.56085097,6.88802596 5.33633832,6.66350364 C4.88788723,6.21503323 4.88788723,5.48806328 5.33633832,5.03959287 L10.0398208,0.336352804 C10.4882719,-0.112117601 11.2152106,-0.112117601 11.6636617,0.336352804 C12.1121128,0.78482321 12.1121128,1.51179316 11.6636617,1.96026357 L6.96017915,6.66350364 C6.73624071,6.88802596 6.44224972,7 6.14825874,7 Z" id="Shape"></path>
            </g>
        </g>
    </g>
</svg>