<?xml version="1.0" encoding="UTF-8"?>
<svg width="24px" height="24px" viewBox="0 0 24 24" version="1.1" xmlns="http://www.w3.org/2000/svg" xmlns:xlink="http://www.w3.org/1999/xlink">
    <!-- Generator: Sketch 50.2 (55047) - http://www.bohemiancoding.com/sketch -->
    <title>tupian</title>
    <desc>Created with Sketch.</desc>
    <defs></defs>
    <g id="tupian" stroke="none" stroke-width="1" fill="none" fill-rule="evenodd">
        <g id="Group" transform="translate(0.000000, 1.000000)" fill-rule="nonzero">
            <path d="M3.04891148,21.3334579 C2.76243057,21.3334579 2.4765081,21.2200879 2.25815715,20.9921851 C1.82257214,20.5375423 1.82313058,19.8015093 2.25927403,19.3480292 L13.815121,7.33952865 C14.0262122,7.12034663 14.3221867,7.00872077 14.6114598,7 C14.909668,7.00174415 15.195032,7.12790463 15.403331,7.35057496 L23.2627919,14.6742778 C23.2013407,15.5 23.6855328,15.8701861 23.2443633,16.3184336 C22.8043108,16.7666812 22.0956475,16.7591232 21.6650884,16.299248 L14.5947065,9.815646 L3.83799048,20.9933479 C3.62019798,21.2200879 3.33427551,21.3334579 3.04891148,21.3334579 Z" id="Shape" fill="#FFB713"></path>
            <path d="M20.88,21.6842132 L3.70894737,21.6842132 C1.74967105,21.6842132 0.156315789,20.0483684 0.156315789,18.0368447 L0.156315789,4.16164737 C0.156315789,2.15012368 1.74967105,0.514278947 3.70894737,0.514278947 L20.2878947,0.514278947 C22.2471711,0.514278947 23.8405263,2.15012368 23.8405263,4.16164737 L23.8405263,11.4539789 C23.8405263,12.1250947 23.31,12.6697684 22.6563158,12.6697684 C22.0026316,12.6697684 21.4721053,12.1250947 21.4721053,11.4539789 L21.4721053,4.16164737 C21.4721053,3.49113947 20.9409868,2.94585789 20.2878947,2.94585789 L3.70894737,2.94585789 C3.05585526,2.94585789 2.52473684,3.49113947 2.52473684,4.16164737 L2.52473684,18.0368447 C2.52473684,18.7073526 3.05585526,19.2526342 3.70894737,19.2526342 L20.88,19.2526342 C21.2068421,19.2526342 21.4721053,18.9802974 21.4721053,18.6447395 L21.4721053,15.2198605 C21.4721053,14.5487447 22.0026316,14.0040711 22.6563158,14.0040711 C23.31,14.0040711 23.8405263,14.5487447 23.8405263,15.2198605 L23.8405263,18.6447395 C23.8405263,20.3207053 22.5124342,21.6842132 20.88,21.6842132 Z" id="Shape" fill="#3F72DE"></path>
            <path d="M7.47519737,8.34947368 C6.92369737,8.34947368 6.47519737,7.90097368 6.47519737,7.34947368 C6.47519737,6.79797368 6.92369737,6.34947368 7.47519737,6.34947368 C8.02669737,6.34947368 8.47519737,6.79797368 8.47519737,7.34947368 C8.47519737,7.90097368 8.02644737,8.34947368 7.47519737,8.34947368 Z" id="Shape" stroke="#FFB800" fill="#FFB713"></path>
        </g>
    </g>
</svg>